<?xml version="1.0" standalone="no"?>
<!DOCTYPE svg PUBLIC "-//W3C//DTD SVG 20010904//EN"
 "http://www.w3.org/TR/2001/REC-SVG-20010904/DTD/svg10.dtd">
<svg version="1.0" xmlns="http://www.w3.org/2000/svg"
 width="1050.000000pt" height="600.000000pt" viewBox="0 0 1050.000000 600.000000"
 preserveAspectRatio="xMidYMid meet">

<g transform="translate(0.000000,600.000000) scale(0.100000,-0.100000)"
fill="#000000" stroke="none">
<path d="M1985 4524 c-165 -36 -329 -124 -504 -272 -175 -148 -309 -327 -436
-580 -115 -231 -155 -367 -155 -532 0 -149 18 -190 82 -190 32 0 68 27 68 50
0 14 -9 20 -37 22 -32 3 -38 7 -46 37 -11 45 7 188 38 296 53 183 172 411 310
594 90 119 283 306 300 290 2 -3 -7 -47 -20 -99 -73 -280 -164 -911 -166
-1142 -1 -85 -2 -93 -27 -118 -35 -34 -192 -131 -307 -190 -83 -42 -90 -48
-90 -76 l0 -29 115 -1 c115 -1 180 -11 247 -39 l36 -15 -6 -248 c-7 -260 5
-619 23 -712 13 -71 38 -105 76 -105 l29 0 -2 65 c-9 251 -12 907 -4 919 18
28 97 -28 491 -344 479 -385 588 -465 631 -465 21 0 29 5 29 18 0 27 -14 40
-160 149 -74 56 -214 165 -310 244 -365 298 -488 394 -584 456 l-98 64 7 122
c8 133 14 150 71 194 173 133 428 375 551 523 160 192 295 432 333 590 66 279
-31 477 -256 525 -85 18 -139 18 -229 -1z m255 -98 c115 -59 160 -159 140
-309 -33 -240 -229 -553 -545 -872 -116 -118 -276 -255 -297 -255 -13 0 -11
20 43 440 41 318 146 887 169 915 18 22 159 76 235 91 92 17 210 13 255 -10z
m-843 -1802 c-5 -5 -147 29 -147 36 0 6 28 24 95 62 l50 27 3 -61 c2 -33 1
-62 -1 -64z"/>
<path d="M4962 4057 c-56 -67 -111 -416 -133 -845 l-12 -227 -107 -220 c-75
-154 -118 -230 -143 -254 -34 -32 -36 -32 -46 -13 -67 126 -8 787 104 1161 30
101 31 127 7 140 -24 13 -56 -8 -77 -49 -37 -72 -101 -375 -126 -593 l-12
-108 -66 -61 c-122 -112 -176 -136 -223 -98 -38 30 -58 104 -58 217 0 100 -10
133 -39 133 -24 0 -44 -24 -151 -180 -140 -205 -170 -230 -170 -142 0 67 32
184 75 280 44 97 43 116 -7 120 -30 3 -39 -2 -57 -27 -33 -47 -67 -129 -86
-211 -26 -110 -128 -275 -194 -313 l-31 -18 -16 37 c-10 23 -17 84 -21 163 -8
183 -27 216 -98 173 -52 -32 -170 -268 -240 -479 -14 -46 -31 -85 -36 -88 -12
-8 -12 414 1 585 12 162 37 360 55 451 8 37 17 96 21 131 6 61 5 65 -16 71
-38 10 -56 -23 -89 -161 -39 -164 -58 -293 -66 -452 -9 -148 -17 -168 -107
-235 -49 -37 -68 -45 -103 -45 -27 0 -51 7 -68 20 -33 26 -57 99 -57 174 0 74
-17 111 -49 111 -24 0 -21 5 -162 -235 -40 -68 -44 -72 -47 -47 -12 104 136
347 211 347 13 0 38 -11 57 -25 60 -45 89 -26 54 35 -23 39 -65 60 -117 60
-92 0 -186 -98 -257 -266 -29 -67 -34 -91 -34 -162 -1 -96 10 -112 75 -112 45
0 59 16 134 153 50 89 65 104 65 65 0 -37 45 -122 79 -151 70 -59 160 -54 249
13 29 22 54 40 56 40 1 0 6 -75 9 -167 7 -182 26 -310 52 -349 17 -27 65 -33
83 -11 6 7 30 78 52 158 44 153 86 262 149 388 62 122 67 121 74 -11 6 -128
18 -176 51 -215 50 -58 126 -25 218 95 l47 61 6 -29 c8 -37 39 -60 82 -60 48
0 104 55 184 180 37 58 76 116 87 129 l19 24 6 -82 c8 -97 41 -180 83 -208 18
-12 46 -18 79 -18 56 1 125 35 203 101 l42 37 0 -99 c0 -199 29 -351 73 -391
78 -72 144 -2 274 290 l58 131 7 -193 c7 -220 10 -241 38 -241 28 0 47 35 75
136 27 97 124 319 135 307 3 -4 17 -55 29 -113 39 -179 89 -320 127 -358 28
-28 36 -31 54 -22 26 14 25 30 -5 90 -52 103 -116 380 -118 518 l-2 77 87 134
c48 73 85 137 82 142 -12 20 -54 8 -83 -23 -38 -41 -123 -184 -241 -406 -51
-95 -94 -171 -96 -169 -8 8 17 435 37 635 20 199 55 443 82 572 8 36 11 74 7
85 -9 24 -52 32 -68 12z"/>
<path d="M7073 3791 c-41 -26 -103 -308 -123 -566 -6 -77 -15 -143 -18 -146
-4 -3 -61 -43 -127 -89 -66 -46 -138 -98 -161 -117 -23 -18 -46 -33 -52 -33
-6 0 -23 16 -37 35 -15 19 -58 60 -97 91 -103 83 -110 115 -44 187 23 24 44
37 60 37 22 0 26 5 26 29 0 72 -76 66 -155 -13 -42 -41 -55 -62 -65 -106 -27
-113 -263 -350 -348 -350 -28 0 -61 41 -78 95 -18 63 -18 189 2 303 20 118 17
146 -17 150 -36 4 -56 -23 -75 -104 -9 -38 -18 -75 -20 -81 -2 -9 -31 -13 -98
-13 -105 0 -138 -9 -178 -47 l-26 -25 5 115 c6 112 5 115 -17 127 -53 29 -71
-47 -76 -334 -4 -224 1 -252 39 -240 31 9 37 22 37 77 0 55 30 152 65 207 35
55 86 69 197 54 l45 -6 6 -82 c6 -99 36 -181 80 -224 92 -90 210 -48 368 131
40 45 81 91 90 101 17 19 20 18 91 -45 75 -66 84 -75 118 -121 l21 -27 -81
-88 c-153 -166 -218 -289 -207 -396 3 -41 10 -56 36 -79 105 -94 293 61 365
301 19 63 21 168 5 226 l-11 40 50 46 c49 45 227 174 254 184 10 4 13 -31 14
-172 0 -198 16 -336 44 -400 16 -37 23 -43 49 -43 42 0 52 19 99 185 45 156
126 356 175 431 l31 49 8 -105 c8 -117 22 -184 44 -218 21 -33 60 -45 99 -32
32 11 114 89 149 143 22 33 28 34 41 5 7 -16 20 -24 41 -26 42 -4 73 33 154
179 60 110 94 159 112 159 4 0 8 -33 8 -72 1 -210 77 -344 185 -324 32 6 55
23 113 81 l72 74 0 -33 c0 -50 24 -76 71 -76 50 0 64 14 133 140 56 100 76
120 76 74 0 -40 36 -108 76 -143 77 -68 165 -60 271 25 23 19 44 34 47 34 3 0
6 -11 6 -25 0 -14 7 -41 14 -60 12 -28 20 -35 44 -35 40 0 79 45 147 170 60
110 100 170 114 170 4 0 11 -44 14 -99 19 -285 142 -381 289 -228 92 95 178
232 163 257 -18 28 -46 4 -115 -95 -85 -122 -128 -165 -170 -165 -59 0 -83 63
-99 267 -6 67 -15 132 -21 143 -29 54 -86 7 -197 -163 -46 -71 -86 -127 -88
-125 -7 8 18 130 45 213 40 127 45 159 26 174 -26 22 -56 -6 -91 -82 -18 -40
-38 -96 -45 -126 -10 -44 -24 -65 -77 -121 -99 -105 -176 -129 -233 -72 -33
33 -46 76 -57 186 -6 58 -13 82 -25 90 -29 18 -46 -1 -128 -143 -96 -164 -105
-174 -96 -103 17 134 137 312 210 312 11 0 34 -12 53 -26 65 -49 97 -10 41 52
-29 31 -42 37 -84 41 -90 9 -174 -56 -246 -192 -48 -90 -178 -274 -214 -301
-31 -24 -69 -31 -90 -16 -35 23 -52 90 -64 252 -11 135 -22 170 -56 170 -28 0
-89 -69 -166 -187 -44 -68 -83 -122 -86 -119 -8 9 17 124 49 224 33 105 37
157 13 166 -39 15 -87 -71 -132 -237 -38 -139 -128 -288 -199 -329 -32 -19
-32 -19 -44 4 -7 13 -16 86 -20 163 -8 145 -18 191 -44 201 -28 11 -74 -18
-104 -65 -49 -76 -137 -268 -182 -398 -24 -68 -47 -119 -52 -116 -15 9 -1 560
18 732 9 79 27 208 40 287 31 176 32 210 6 217 -10 2 -23 2 -28 -2z m-533
-1164 c0 -143 -99 -339 -190 -377 -85 -35 -81 89 7 233 36 60 157 197 174 197
5 0 9 -24 9 -53z"/>
<path d="M5876 3671 c-26 -28 -32 -86 -12 -116 35 -53 111 -18 109 51 -2 71
-58 109 -97 65z"/>
</g>
</svg>
